<mxfile host="Electron" modified="2024-09-14T11:53:47.309Z" agent="Mozilla/5.0 (Windows NT 10.0; Win64; x64) AppleWebKit/537.36 (KHTML, like Gecko) draw.io/24.5.1 Chrome/124.0.6367.207 Electron/30.0.6 Safari/537.36" etag="JBiSEWV-rPzqwYXRlmyx" version="24.5.1" type="device">
  <diagram name="Page-1" id="0hUfGoHjvQAqBC1yxDHZ">
    <mxGraphModel dx="1100" dy="761" grid="1" gridSize="10" guides="1" tooltips="1" connect="1" arrows="1" fold="1" page="1" pageScale="1" pageWidth="827" pageHeight="1169" math="0" shadow="0">
      <root>
        <mxCell id="0" />
        <mxCell id="1" parent="0" />
        <mxCell id="b2-CWa9QdNSokfas64_D-8" style="edgeStyle=orthogonalEdgeStyle;rounded=0;orthogonalLoop=1;jettySize=auto;html=1;entryX=0;entryY=0.5;entryDx=0;entryDy=0;" parent="1" source="b2-CWa9QdNSokfas64_D-1" target="b2-CWa9QdNSokfas64_D-2" edge="1">
          <mxGeometry relative="1" as="geometry" />
        </mxCell>
        <mxCell id="b2-CWa9QdNSokfas64_D-9" style="edgeStyle=orthogonalEdgeStyle;rounded=0;orthogonalLoop=1;jettySize=auto;html=1;entryX=0;entryY=0.5;entryDx=0;entryDy=0;" parent="1" source="b2-CWa9QdNSokfas64_D-1" target="b2-CWa9QdNSokfas64_D-3" edge="1">
          <mxGeometry relative="1" as="geometry" />
        </mxCell>
        <mxCell id="b2-CWa9QdNSokfas64_D-10" style="edgeStyle=orthogonalEdgeStyle;rounded=0;orthogonalLoop=1;jettySize=auto;html=1;entryX=0;entryY=0.5;entryDx=0;entryDy=0;" parent="1" source="b2-CWa9QdNSokfas64_D-1" target="b2-CWa9QdNSokfas64_D-4" edge="1">
          <mxGeometry relative="1" as="geometry" />
        </mxCell>
        <mxCell id="b2-CWa9QdNSokfas64_D-11" style="edgeStyle=orthogonalEdgeStyle;rounded=0;orthogonalLoop=1;jettySize=auto;html=1;entryX=0;entryY=0.5;entryDx=0;entryDy=0;" parent="1" source="b2-CWa9QdNSokfas64_D-1" target="b2-CWa9QdNSokfas64_D-6" edge="1">
          <mxGeometry relative="1" as="geometry" />
        </mxCell>
        <mxCell id="b2-CWa9QdNSokfas64_D-12" style="edgeStyle=orthogonalEdgeStyle;rounded=0;orthogonalLoop=1;jettySize=auto;html=1;entryX=0;entryY=0.5;entryDx=0;entryDy=0;" parent="1" source="b2-CWa9QdNSokfas64_D-1" target="b2-CWa9QdNSokfas64_D-7" edge="1">
          <mxGeometry relative="1" as="geometry" />
        </mxCell>
        <mxCell id="b2-CWa9QdNSokfas64_D-1" value="RX" style="rounded=1;whiteSpace=wrap;html=1;" parent="1" vertex="1">
          <mxGeometry x="40" y="200" width="40" height="40" as="geometry" />
        </mxCell>
        <mxCell id="b2-CWa9QdNSokfas64_D-17" style="edgeStyle=orthogonalEdgeStyle;rounded=0;orthogonalLoop=1;jettySize=auto;html=1;entryX=0;entryY=0.5;entryDx=0;entryDy=0;strokeWidth=2;fillColor=#f8cecc;strokeColor=#b85450;" parent="1" source="b2-CWa9QdNSokfas64_D-2" target="b2-CWa9QdNSokfas64_D-15" edge="1">
          <mxGeometry relative="1" as="geometry" />
        </mxCell>
        <mxCell id="b2-CWa9QdNSokfas64_D-34" value="DMA" style="edgeLabel;html=1;align=center;verticalAlign=middle;resizable=0;points=[];" parent="b2-CWa9QdNSokfas64_D-17" vertex="1" connectable="0">
          <mxGeometry x="-0.0128" y="1" relative="1" as="geometry">
            <mxPoint y="1" as="offset" />
          </mxGeometry>
        </mxCell>
        <mxCell id="b2-CWa9QdNSokfas64_D-2" value="RX FIFO" style="rounded=0;whiteSpace=wrap;html=1;" parent="1" vertex="1">
          <mxGeometry x="160" y="40" width="80" height="40" as="geometry" />
        </mxCell>
        <mxCell id="b2-CWa9QdNSokfas64_D-18" style="edgeStyle=orthogonalEdgeStyle;rounded=0;orthogonalLoop=1;jettySize=auto;html=1;entryX=0;entryY=0.5;entryDx=0;entryDy=0;strokeWidth=2;fillColor=#f8cecc;strokeColor=#b85450;" parent="1" source="b2-CWa9QdNSokfas64_D-3" target="b2-CWa9QdNSokfas64_D-16" edge="1">
          <mxGeometry relative="1" as="geometry" />
        </mxCell>
        <mxCell id="b2-CWa9QdNSokfas64_D-35" value="DMA" style="edgeLabel;html=1;align=center;verticalAlign=middle;resizable=0;points=[];" parent="b2-CWa9QdNSokfas64_D-18" vertex="1" connectable="0">
          <mxGeometry x="-0.2799" y="-3" relative="1" as="geometry">
            <mxPoint x="11" y="-3" as="offset" />
          </mxGeometry>
        </mxCell>
        <mxCell id="b2-CWa9QdNSokfas64_D-3" value="RX FIFO" style="rounded=0;whiteSpace=wrap;html=1;" parent="1" vertex="1">
          <mxGeometry x="160" y="120" width="80" height="40" as="geometry" />
        </mxCell>
        <mxCell id="b2-CWa9QdNSokfas64_D-22" style="edgeStyle=orthogonalEdgeStyle;rounded=0;orthogonalLoop=1;jettySize=auto;html=1;entryX=0;entryY=0.25;entryDx=0;entryDy=0;strokeWidth=2;fillColor=#f8cecc;strokeColor=#b85450;" parent="1" source="b2-CWa9QdNSokfas64_D-4" target="b2-CWa9QdNSokfas64_D-19" edge="1">
          <mxGeometry relative="1" as="geometry" />
        </mxCell>
        <mxCell id="b2-CWa9QdNSokfas64_D-4" value="RX FIFO" style="rounded=0;whiteSpace=wrap;html=1;" parent="1" vertex="1">
          <mxGeometry x="160" y="200" width="80" height="40" as="geometry" />
        </mxCell>
        <mxCell id="b2-CWa9QdNSokfas64_D-14" style="edgeStyle=orthogonalEdgeStyle;rounded=0;orthogonalLoop=1;jettySize=auto;html=1;fillColor=#dae8fc;strokeColor=#6c8ebf;" parent="1" source="b2-CWa9QdNSokfas64_D-5" target="b2-CWa9QdNSokfas64_D-13" edge="1">
          <mxGeometry relative="1" as="geometry" />
        </mxCell>
        <mxCell id="b2-CWa9QdNSokfas64_D-23" style="edgeStyle=orthogonalEdgeStyle;rounded=0;orthogonalLoop=1;jettySize=auto;html=1;entryX=0;entryY=0.75;entryDx=0;entryDy=0;startArrow=classic;startFill=1;endArrow=none;endFill=0;strokeWidth=2;fillColor=#f8cecc;strokeColor=#b85450;" parent="1" source="b2-CWa9QdNSokfas64_D-5" target="b2-CWa9QdNSokfas64_D-19" edge="1">
          <mxGeometry relative="1" as="geometry" />
        </mxCell>
        <mxCell id="b2-CWa9QdNSokfas64_D-5" value="T&lt;span style=&quot;background-color: initial;&quot;&gt;X FIFO&lt;/span&gt;" style="rounded=0;whiteSpace=wrap;html=1;fillColor=#dae8fc;strokeColor=#6c8ebf;" parent="1" vertex="1">
          <mxGeometry x="160" y="280" width="80" height="40" as="geometry" />
        </mxCell>
        <mxCell id="b2-CWa9QdNSokfas64_D-28" style="edgeStyle=orthogonalEdgeStyle;rounded=0;orthogonalLoop=1;jettySize=auto;html=1;entryX=0;entryY=0.5;entryDx=0;entryDy=0;strokeWidth=2;fillColor=#f8cecc;strokeColor=#b85450;" parent="1" source="b2-CWa9QdNSokfas64_D-6" target="b2-CWa9QdNSokfas64_D-27" edge="1">
          <mxGeometry relative="1" as="geometry" />
        </mxCell>
        <mxCell id="b2-CWa9QdNSokfas64_D-6" value="RX FIFO" style="rounded=0;whiteSpace=wrap;html=1;" parent="1" vertex="1">
          <mxGeometry x="160" y="360" width="80" height="40" as="geometry" />
        </mxCell>
        <mxCell id="b2-CWa9QdNSokfas64_D-30" style="edgeStyle=orthogonalEdgeStyle;rounded=0;orthogonalLoop=1;jettySize=auto;html=1;entryX=0;entryY=0.5;entryDx=0;entryDy=0;strokeWidth=2;fillColor=#f8cecc;strokeColor=#b85450;" parent="1" source="b2-CWa9QdNSokfas64_D-7" target="b2-CWa9QdNSokfas64_D-29" edge="1">
          <mxGeometry relative="1" as="geometry" />
        </mxCell>
        <mxCell id="b2-CWa9QdNSokfas64_D-43" value="DMA" style="edgeLabel;html=1;align=center;verticalAlign=middle;resizable=0;points=[];" parent="b2-CWa9QdNSokfas64_D-30" vertex="1" connectable="0">
          <mxGeometry x="-0.0358" relative="1" as="geometry">
            <mxPoint as="offset" />
          </mxGeometry>
        </mxCell>
        <mxCell id="b2-CWa9QdNSokfas64_D-7" value="RX FIFO" style="rounded=0;whiteSpace=wrap;html=1;" parent="1" vertex="1">
          <mxGeometry x="160" y="440" width="80" height="40" as="geometry" />
        </mxCell>
        <mxCell id="b2-CWa9QdNSokfas64_D-13" value="TX" style="rounded=1;whiteSpace=wrap;html=1;fillColor=#dae8fc;strokeColor=#6c8ebf;" parent="1" vertex="1">
          <mxGeometry x="40" y="280" width="40" height="40" as="geometry" />
        </mxCell>
        <mxCell id="b2-CWa9QdNSokfas64_D-26" style="edgeStyle=orthogonalEdgeStyle;rounded=0;orthogonalLoop=1;jettySize=auto;html=1;entryX=1;entryY=0.5;entryDx=0;entryDy=0;endArrow=none;endFill=0;" parent="1" source="b2-CWa9QdNSokfas64_D-15" target="b2-CWa9QdNSokfas64_D-24" edge="1">
          <mxGeometry relative="1" as="geometry" />
        </mxCell>
        <mxCell id="b2-CWa9QdNSokfas64_D-15" value="write count" style="rounded=1;whiteSpace=wrap;html=1;" parent="1" vertex="1">
          <mxGeometry x="400" y="40" width="80" height="40" as="geometry" />
        </mxCell>
        <mxCell id="b2-CWa9QdNSokfas64_D-25" style="edgeStyle=orthogonalEdgeStyle;rounded=0;orthogonalLoop=1;jettySize=auto;html=1;entryX=0;entryY=0.5;entryDx=0;entryDy=0;endArrow=none;endFill=0;" parent="1" source="b2-CWa9QdNSokfas64_D-16" target="b2-CWa9QdNSokfas64_D-24" edge="1">
          <mxGeometry relative="1" as="geometry" />
        </mxCell>
        <mxCell id="b2-CWa9QdNSokfas64_D-16" value="write addr&lt;div&gt;+ trigger&lt;/div&gt;" style="rounded=1;whiteSpace=wrap;html=1;" parent="1" vertex="1">
          <mxGeometry x="320" y="120" width="80" height="40" as="geometry" />
        </mxCell>
        <mxCell id="b2-CWa9QdNSokfas64_D-19" value="RP2040&lt;div&gt;RAM&lt;/div&gt;" style="rounded=1;whiteSpace=wrap;html=1;fillColor=#d5e8d4;strokeColor=#82b366;" parent="1" vertex="1">
          <mxGeometry x="500" y="180" width="120" height="160" as="geometry" />
        </mxCell>
        <mxCell id="b2-CWa9QdNSokfas64_D-24" value="write&lt;div&gt;DMA&lt;/div&gt;" style="rounded=1;whiteSpace=wrap;html=1;" parent="1" vertex="1">
          <mxGeometry x="380" y="180" width="40" height="40" as="geometry" />
        </mxCell>
        <mxCell id="b2-CWa9QdNSokfas64_D-32" style="edgeStyle=orthogonalEdgeStyle;rounded=0;orthogonalLoop=1;jettySize=auto;html=1;exitX=0.5;exitY=0;exitDx=0;exitDy=0;entryX=0;entryY=0.5;entryDx=0;entryDy=0;endArrow=none;endFill=0;" parent="1" source="b2-CWa9QdNSokfas64_D-27" target="b2-CWa9QdNSokfas64_D-31" edge="1">
          <mxGeometry relative="1" as="geometry" />
        </mxCell>
        <mxCell id="b2-CWa9QdNSokfas64_D-27" value="read addr&lt;div&gt;+ trigger&lt;/div&gt;" style="rounded=1;whiteSpace=wrap;html=1;" parent="1" vertex="1">
          <mxGeometry x="320" y="360" width="80" height="40" as="geometry" />
        </mxCell>
        <mxCell id="b2-CWa9QdNSokfas64_D-33" style="edgeStyle=orthogonalEdgeStyle;rounded=0;orthogonalLoop=1;jettySize=auto;html=1;entryX=1;entryY=0.5;entryDx=0;entryDy=0;endArrow=none;endFill=0;" parent="1" source="b2-CWa9QdNSokfas64_D-29" target="b2-CWa9QdNSokfas64_D-31" edge="1">
          <mxGeometry relative="1" as="geometry" />
        </mxCell>
        <mxCell id="b2-CWa9QdNSokfas64_D-29" value="read count" style="rounded=1;whiteSpace=wrap;html=1;" parent="1" vertex="1">
          <mxGeometry x="400" y="440" width="80" height="40" as="geometry" />
        </mxCell>
        <mxCell id="b2-CWa9QdNSokfas64_D-31" value="read&lt;div&gt;DMA&lt;/div&gt;" style="rounded=1;whiteSpace=wrap;html=1;fillColor=#dae8fc;strokeColor=#6c8ebf;" parent="1" vertex="1">
          <mxGeometry x="380" y="300" width="40" height="40" as="geometry" />
        </mxCell>
        <mxCell id="b2-CWa9QdNSokfas64_D-42" value="DMA" style="edgeLabel;html=1;align=center;verticalAlign=middle;resizable=0;points=[];" parent="1" vertex="1" connectable="0">
          <mxGeometry x="240.00275862068975" y="340" as="geometry">
            <mxPoint x="41" y="40" as="offset" />
          </mxGeometry>
        </mxCell>
        <mxCell id="b2-CWa9QdNSokfas64_D-45" value="" style="endArrow=none;dashed=1;html=1;rounded=0;fillColor=#ffe6cc;strokeColor=#d79b00;" parent="1" edge="1">
          <mxGeometry width="50" height="50" relative="1" as="geometry">
            <mxPoint x="140" y="80" as="sourcePoint" />
            <mxPoint x="140" y="40" as="targetPoint" />
          </mxGeometry>
        </mxCell>
        <mxCell id="b2-CWa9QdNSokfas64_D-46" value="" style="endArrow=none;dashed=1;html=1;rounded=0;fillColor=#ffe6cc;strokeColor=#d79b00;" parent="1" edge="1">
          <mxGeometry width="50" height="50" relative="1" as="geometry">
            <mxPoint x="140" y="160" as="sourcePoint" />
            <mxPoint x="140" y="120" as="targetPoint" />
          </mxGeometry>
        </mxCell>
        <mxCell id="b2-CWa9QdNSokfas64_D-47" value="" style="endArrow=none;dashed=1;html=1;rounded=0;fillColor=#ffe6cc;strokeColor=#d79b00;" parent="1" edge="1">
          <mxGeometry width="50" height="50" relative="1" as="geometry">
            <mxPoint x="140" y="240" as="sourcePoint" />
            <mxPoint x="140" y="200" as="targetPoint" />
          </mxGeometry>
        </mxCell>
        <mxCell id="b2-CWa9QdNSokfas64_D-48" value="" style="endArrow=none;dashed=1;html=1;rounded=0;fillColor=#ffe6cc;strokeColor=#d79b00;" parent="1" edge="1">
          <mxGeometry width="50" height="50" relative="1" as="geometry">
            <mxPoint x="140" y="400" as="sourcePoint" />
            <mxPoint x="140" y="360" as="targetPoint" />
          </mxGeometry>
        </mxCell>
        <mxCell id="b2-CWa9QdNSokfas64_D-49" value="" style="endArrow=none;dashed=1;html=1;rounded=0;fillColor=#ffe6cc;strokeColor=#d79b00;" parent="1" edge="1">
          <mxGeometry width="50" height="50" relative="1" as="geometry">
            <mxPoint x="140" y="480" as="sourcePoint" />
            <mxPoint x="140" y="440" as="targetPoint" />
          </mxGeometry>
        </mxCell>
        <mxCell id="b2-CWa9QdNSokfas64_D-50" value="" style="endArrow=none;html=1;rounded=0;fillColor=#e1d5e7;strokeColor=#9673a6;" parent="1" edge="1">
          <mxGeometry width="50" height="50" relative="1" as="geometry">
            <mxPoint x="300" y="160" as="sourcePoint" />
            <mxPoint x="300" y="120" as="targetPoint" />
          </mxGeometry>
        </mxCell>
        <mxCell id="b2-CWa9QdNSokfas64_D-51" value="" style="endArrow=none;html=1;rounded=0;fillColor=#e1d5e7;strokeColor=#9673a6;" parent="1" edge="1">
          <mxGeometry width="50" height="50" relative="1" as="geometry">
            <mxPoint x="300" y="400" as="sourcePoint" />
            <mxPoint x="300" y="360" as="targetPoint" />
          </mxGeometry>
        </mxCell>
        <mxCell id="b2-CWa9QdNSokfas64_D-52" value="" style="endArrow=none;html=1;rounded=0;fillColor=#e1d5e7;strokeColor=#9673a6;dashed=1;" parent="1" edge="1">
          <mxGeometry width="50" height="50" relative="1" as="geometry">
            <mxPoint x="379.31" y="80" as="sourcePoint" />
            <mxPoint x="379.31" y="40" as="targetPoint" />
          </mxGeometry>
        </mxCell>
        <mxCell id="b2-CWa9QdNSokfas64_D-53" value="" style="endArrow=none;html=1;rounded=0;fillColor=#e1d5e7;strokeColor=#9673a6;dashed=1;" parent="1" edge="1">
          <mxGeometry width="50" height="50" relative="1" as="geometry">
            <mxPoint x="379.31" y="480" as="sourcePoint" />
            <mxPoint x="379.31" y="440" as="targetPoint" />
          </mxGeometry>
        </mxCell>
        <mxCell id="b2-CWa9QdNSokfas64_D-56" value="prev&lt;div&gt;done&lt;/div&gt;" style="text;html=1;align=center;verticalAlign=middle;whiteSpace=wrap;rounded=0;" parent="1" vertex="1">
          <mxGeometry x="270" y="155" width="60" height="40" as="geometry" />
        </mxCell>
        <mxCell id="b2-CWa9QdNSokfas64_D-57" value="prev&lt;div&gt;done&lt;/div&gt;" style="text;html=1;align=center;verticalAlign=middle;whiteSpace=wrap;rounded=0;" parent="1" vertex="1">
          <mxGeometry x="270" y="395" width="60" height="40" as="geometry" />
        </mxCell>
        <mxCell id="b2-CWa9QdNSokfas64_D-58" value="prev started" style="text;html=1;align=center;verticalAlign=middle;whiteSpace=wrap;rounded=0;" parent="1" vertex="1">
          <mxGeometry x="350" y="475" width="60" height="40" as="geometry" />
        </mxCell>
        <mxCell id="b2-CWa9QdNSokfas64_D-59" value="prev started" style="text;html=1;align=center;verticalAlign=middle;whiteSpace=wrap;rounded=0;" parent="1" vertex="1">
          <mxGeometry x="350" y="75" width="60" height="40" as="geometry" />
        </mxCell>
        <mxCell id="b2-CWa9QdNSokfas64_D-60" value="full?" style="text;html=1;align=center;verticalAlign=middle;whiteSpace=wrap;rounded=0;" parent="1" vertex="1">
          <mxGeometry x="110" y="80" width="60" height="30" as="geometry" />
        </mxCell>
        <mxCell id="b2-CWa9QdNSokfas64_D-63" value="full?" style="text;html=1;align=center;verticalAlign=middle;whiteSpace=wrap;rounded=0;" parent="1" vertex="1">
          <mxGeometry x="110" y="160" width="60" height="30" as="geometry" />
        </mxCell>
        <mxCell id="b2-CWa9QdNSokfas64_D-64" value="full?" style="text;html=1;align=center;verticalAlign=middle;whiteSpace=wrap;rounded=0;" parent="1" vertex="1">
          <mxGeometry x="110" y="240" width="60" height="30" as="geometry" />
        </mxCell>
        <mxCell id="b2-CWa9QdNSokfas64_D-65" value="full?" style="text;html=1;align=center;verticalAlign=middle;whiteSpace=wrap;rounded=0;" parent="1" vertex="1">
          <mxGeometry x="110" y="400" width="60" height="30" as="geometry" />
        </mxCell>
        <mxCell id="b2-CWa9QdNSokfas64_D-66" value="full?" style="text;html=1;align=center;verticalAlign=middle;whiteSpace=wrap;rounded=0;" parent="1" vertex="1">
          <mxGeometry x="110" y="480" width="60" height="30" as="geometry" />
        </mxCell>
        <mxCell id="b2-CWa9QdNSokfas64_D-67" value="write data" style="text;html=1;align=center;verticalAlign=middle;whiteSpace=wrap;rounded=0;" parent="1" vertex="1">
          <mxGeometry x="260" y="210" width="60" height="40" as="geometry" />
        </mxCell>
        <mxCell id="b2-CWa9QdNSokfas64_D-68" value="read data" style="text;html=1;align=center;verticalAlign=middle;whiteSpace=wrap;rounded=0;" parent="1" vertex="1">
          <mxGeometry x="260" y="290" width="60" height="40" as="geometry" />
        </mxCell>
      </root>
    </mxGraphModel>
  </diagram>
</mxfile>
